# xmcd
#
# Track frame offsets:
#	150
#	17085
#	31033
#	47900
#	61963
#	76955
#	94057
#	109045
#	124015
#	141655
#	157958
#	171728
#	184062
#	202926
#	218458
#	234680
#	249769
#	269526
#	284175
#
# Disc length: 3972 seconds
#
# Revision: 1
# Processed by: cddbd v1.5.2PL0 Copyright (c) Steve Scherf et al.
# Submitted via: audiograbber 1.83.01
#
DISCID=110f8213
DTITLE=Various Artist - Winners 2020 [Disc 2]
DYEAR=2020
DGENRE=Country
TTITLE0=The Wolfe Brothers - Hey Brother
TTITLE1=Amber Lawrence - Outrageous
TTITLE2=Sara Storer - Raindance
TTITLE3=The Buckleys - Daydream
TTITLE4=Sinead Burgess - Reno
TTITLE5=Ashleigh Dallas - In The Water
TTITLE6=Kevin Bennett and The Flood - River Sing
TTITLE7=Jetty Road - Because We Can
TTITLE8=The Viper Creek Band - Blue Jean Jacket
TTITLE9=Allan Caswell - Country Copper
TTITLE10=Rod McCormack - Timeless Traveller
TTITLE11=Jeff Brown - More Times Than I Remember
TTITLE12=Hayley Marsten - Red Wine White Dress
TTITLE13=Angus Gill - Welcome To My Heart
TTITLE14=Graham Rodger - Knights Of The Saddle
TTITLE15=Hillbilly Goats - Bleed Me Dry
TTITLE16=John O'Dea - The Drovers Friend
TTITLE17=Mickey Pye - Bridle Track
TTITLE18=Dean Perrett - His Last Cattle Drive
EXTD=48th Country Awards of Australia
EXTT0=
EXTT1=
EXTT2=
EXTT3=
EXTT4=
EXTT5=
EXTT6=
EXTT7=
EXTT8=
EXTT9=
EXTT10=
EXTT11=
EXTT12=
EXTT13=
EXTT14=
EXTT15=
EXTT16=
EXTT17=
EXTT18=
PLAYORDER=
